<svg width="200" height="200" viewBox="0 0 200 200" fill="none" xmlns="http://www.w3.org/2000/svg">
<g clip-path="url(#clip0_57_6)">
<rect width="200" height="200" rx="10" fill="#FFFFEB"/>
<path d="M10.0469 65H58.2344C65.2656 65 70.9219 65.3125 75.2031 65.9375C79.5156 66.5625 82.7812 67.6406 85 69.1719C87.2188 70.7031 88.7188 72.7969 89.5 75.4531C90.2812 78.1094 90.6719 81.4688 90.6719 85.5312V87.4062C90.6719 91.1562 90.2188 94.3906 89.3125 97.1094C88.4375 99.7969 86.7344 101.984 84.2031 103.672C81.6719 105.328 77.9219 106.5 72.9531 107.188L88.6094 137H79.6094L64.2812 107.844C63.6562 107.875 63 107.891 62.3125 107.891C61.6562 107.891 60.9688 107.891 60.25 107.891H19.0469V137H10.0469V65ZM19.0469 100.109H58.8438C64.1875 100.109 68.3906 99.9375 71.4531 99.5938C74.5469 99.2188 76.8125 98.5781 78.25 97.6719C79.7188 96.7656 80.6562 95.4844 81.0625 93.8281C81.4688 92.1719 81.6719 90.0312 81.6719 87.4062V85.5312C81.6719 82.5625 81.3906 80.2188 80.8281 78.5C80.2656 76.7812 79.1406 75.5156 77.4531 74.7031C75.7656 73.8906 73.25 73.375 69.9062 73.1562C66.5625 72.9062 62.0938 72.7812 56.5 72.7812H19.0469V100.109Z" fill="#3D3D3D"/>
<path d="M184.375 116.188C184.375 113.406 184.156 111.219 183.719 109.625C183.281 108.031 182.297 106.859 180.766 106.109C179.234 105.328 176.859 104.828 173.641 104.609C170.422 104.359 166.016 104.188 160.422 104.094L134.359 103.719C127.922 103.625 122.75 103.234 118.844 102.547C114.938 101.859 111.984 100.781 109.984 99.3125C107.984 97.8125 106.641 95.8125 105.953 93.3125C105.297 90.8125 104.969 87.6875 104.969 83.9375C104.969 79.8438 105.422 76.4688 106.328 73.8125C107.266 71.1562 108.938 69.0781 111.344 67.5781C113.781 66.0781 117.219 65.0312 121.656 64.4375C126.094 63.8125 131.828 63.5 138.859 63.5H158.922C165.297 63.5 170.609 63.7031 174.859 64.1094C179.109 64.5156 182.484 65.4531 184.984 66.9219C187.484 68.3906 189.266 70.6719 190.328 73.7656C191.422 76.8594 191.969 81.1094 191.969 86.5156H182.969C182.969 82.3281 182.562 79.1719 181.75 77.0469C180.969 74.8906 179.656 73.4219 177.812 72.6406C176 71.8594 173.547 71.4375 170.453 71.375C167.359 71.3125 163.516 71.2812 158.922 71.2812H139.328C133.734 71.2812 129.25 71.3906 125.875 71.6094C122.531 71.8281 120 72.3281 118.281 73.1094C116.562 73.8906 115.406 75.1406 114.812 76.8594C114.25 78.5781 113.969 80.9375 113.969 83.9375C113.969 86.4688 114.172 88.5 114.578 90.0312C114.984 91.5625 115.891 92.7344 117.297 93.5469C118.734 94.3281 120.938 94.875 123.906 95.1875C126.875 95.4688 130.922 95.6406 136.047 95.7031L163.984 96.0781C170.547 96.1719 175.781 96.5625 179.688 97.25C183.625 97.9062 186.562 98.9844 188.5 100.484C190.469 101.984 191.766 104.016 192.391 106.578C193.047 109.109 193.375 112.312 193.375 116.188C193.375 120.406 192.969 123.953 192.156 126.828C191.375 129.672 189.844 131.953 187.562 133.672C185.281 135.391 181.984 136.625 177.672 137.375C173.359 138.125 167.688 138.5 160.656 138.5H138.719C132.312 138.5 126.938 138.219 122.594 137.656C118.25 137.094 114.781 135.969 112.188 134.281C109.625 132.562 107.781 130.016 106.656 126.641C105.531 123.266 104.969 118.766 104.969 113.141H113.969C113.969 117.547 114.328 120.953 115.047 123.359C115.766 125.766 117.016 127.5 118.797 128.562C120.609 129.594 123.125 130.219 126.344 130.438C129.594 130.625 133.719 130.719 138.719 130.719H160.188C165.781 130.719 170.203 130.547 173.453 130.203C176.703 129.828 179.109 129.141 180.672 128.141C182.234 127.109 183.234 125.641 183.672 123.734C184.141 121.828 184.375 119.312 184.375 116.188Z" fill="#DC0000"/>
</g>
<defs>
<clipPath id="clip0_57_6">
<rect width="200" height="200" rx="10" fill="white"/>
</clipPath>
</defs>
</svg>
