<svg width="300" height="300" viewBox="0 0 300 300" fill="none" xmlns="http://www.w3.org/2000/svg">
<g clip-path="url(#clip0_337_53)">
<g clip-path="url(#clip1_337_53)">
<path d="M54.4258 18.1914V151H19.8906V18.1914H54.4258ZM141.461 58.3867H109.387V48.543C109.387 43.9492 108.977 41.0234 108.156 39.7656C107.336 38.5078 105.969 37.8789 104.055 37.8789C101.977 37.8789 100.391 38.7266 99.2969 40.4219C98.2578 42.1172 97.7383 44.6875 97.7383 48.1328C97.7383 52.5625 98.3398 55.8984 99.543 58.1406C100.691 60.3828 103.945 63.0898 109.305 66.2617C124.672 75.3945 134.352 82.8867 138.344 88.7383C142.336 94.5898 144.332 104.023 144.332 117.039C144.332 126.5 143.211 133.473 140.969 137.957C138.781 142.441 134.516 146.215 128.172 149.277C121.828 152.285 114.445 153.789 106.023 153.789C96.7812 153.789 88.8789 152.039 82.3164 148.539C75.8086 145.039 71.543 140.582 69.5195 135.168C67.4961 129.754 66.4844 122.07 66.4844 112.117V103.422H98.5586V119.582C98.5586 124.559 98.9961 127.758 99.8711 129.18C100.801 130.602 102.414 131.312 104.711 131.312C107.008 131.312 108.703 130.41 109.797 128.605C110.945 126.801 111.52 124.121 111.52 120.566C111.52 112.746 110.453 107.633 108.32 105.227C106.133 102.82 100.746 98.8008 92.1602 93.168C83.5742 87.4805 77.8867 83.3516 75.0977 80.7812C72.3086 78.2109 69.9844 74.6562 68.125 70.1172C66.3203 65.5781 65.418 59.7812 65.418 52.7266C65.418 42.5547 66.7031 35.1172 69.2734 30.4141C71.8984 25.7109 76.1094 22.0469 81.9062 19.4219C87.7031 16.7422 94.7031 15.4023 102.906 15.4023C111.875 15.4023 119.504 16.8516 125.793 19.75C132.137 22.6484 136.32 26.3125 138.344 30.7422C140.422 35.1172 141.461 42.582 141.461 53.1367V58.3867ZM189.777 18.1914V151H155.242V18.1914H189.777ZM280.75 18.1914V151H250.48L232.516 90.625V151H203.641V18.1914H232.516L251.875 77.9922V18.1914H280.75Z" fill="white"/>
<path d="M19.543 171.987H29.0791C35.2347 171.987 39.3923 172.27 41.5518 172.835C43.7314 173.4 45.3864 174.328 46.5166 175.62C47.6468 176.912 48.3532 178.355 48.6357 179.949C48.9183 181.523 49.0596 184.632 49.0596 189.273V206.438C49.0596 210.838 48.8477 213.785 48.4238 215.278C48.0202 216.752 47.3037 217.912 46.2744 218.76C45.2451 219.587 43.9736 220.173 42.46 220.516C40.9463 220.839 38.6657 221 35.6182 221H19.543V171.987ZM32.2881 180.373V212.614C34.1247 212.614 35.2549 212.251 35.6787 211.524C36.1025 210.778 36.3145 208.77 36.3145 205.5V186.458C36.3145 184.238 36.2438 182.815 36.1025 182.189C35.9613 181.564 35.6383 181.11 35.1338 180.827C34.6292 180.524 33.6807 180.373 32.2881 180.373ZM53.8125 171.987H75.0645V181.796H66.5576V191.09H74.5195V200.414H66.5576V211.191H75.9121V221H53.8125V171.987ZM109.879 171.987L103.4 221H84.0557L76.6992 171.987H90.1406C91.6947 185.489 92.8047 196.902 93.4707 206.227C94.1367 196.801 94.833 188.426 95.5596 181.1L96.4375 171.987H109.879ZM112.059 171.987H133.311V181.796H124.804V191.09H132.766V200.414H124.804V211.191H134.158V221H112.059V171.987ZM150.597 171.987V211.191H158.347V221H137.852V171.987H150.597ZM190.588 200.687C190.588 205.611 190.467 209.103 190.225 211.161C190.003 213.2 189.276 215.066 188.045 216.762C186.834 218.457 185.189 219.759 183.11 220.667C181.032 221.575 178.61 222.029 175.845 222.029C173.221 222.029 170.86 221.605 168.761 220.758C166.682 219.89 165.007 218.598 163.735 216.883C162.464 215.167 161.707 213.3 161.465 211.282C161.223 209.264 161.102 205.732 161.102 200.687V192.301C161.102 187.376 161.213 183.895 161.435 181.856C161.677 179.798 162.403 177.921 163.614 176.226C164.845 174.53 166.5 173.229 168.579 172.32C170.658 171.412 173.08 170.958 175.845 170.958C178.468 170.958 180.82 171.392 182.898 172.26C184.997 173.107 186.683 174.389 187.954 176.104C189.226 177.82 189.982 179.687 190.225 181.705C190.467 183.723 190.588 187.255 190.588 192.301V200.687ZM177.843 184.581C177.843 182.3 177.712 180.847 177.449 180.222C177.207 179.576 176.692 179.253 175.905 179.253C175.239 179.253 174.725 179.515 174.361 180.04C174.018 180.545 173.847 182.058 173.847 184.581V207.468C173.847 210.313 173.958 212.069 174.18 212.735C174.422 213.401 174.967 213.734 175.814 213.734C176.682 213.734 177.237 213.351 177.479 212.584C177.722 211.817 177.843 209.991 177.843 207.104V184.581ZM195.371 171.987H208.207C211.678 171.987 214.342 172.26 216.199 172.805C218.076 173.35 219.479 174.137 220.407 175.166C221.356 176.195 221.992 177.447 222.314 178.92C222.658 180.373 222.829 182.633 222.829 185.701V189.97C222.829 193.098 222.506 195.379 221.86 196.812C221.215 198.244 220.024 199.344 218.288 200.111C216.573 200.878 214.322 201.262 211.537 201.262H208.116V221H195.371V171.987ZM208.116 180.373V192.846C208.479 192.866 208.792 192.876 209.055 192.876C210.225 192.876 211.033 192.593 211.477 192.028C211.941 191.443 212.173 190.242 212.173 188.426V184.399C212.173 182.724 211.91 181.634 211.386 181.13C210.861 180.625 209.771 180.373 208.116 180.373ZM226.492 171.987H247.744V181.796H239.237V191.09H247.199V200.414H239.237V211.191H248.592V221H226.492V171.987ZM252.285 171.987H261.307C267.321 171.987 271.388 172.219 273.507 172.684C275.646 173.148 277.382 174.339 278.714 176.256C280.066 178.153 280.742 181.19 280.742 185.368C280.742 189.183 280.268 191.746 279.319 193.058C278.371 194.369 276.504 195.157 273.719 195.419C276.242 196.045 277.937 196.882 278.805 197.932C279.673 198.981 280.207 199.95 280.409 200.838C280.631 201.706 280.742 204.118 280.742 208.073V221H268.905V204.713C268.905 202.089 268.693 200.465 268.27 199.839C267.866 199.213 266.786 198.9 265.03 198.9V221H252.285V171.987ZM265.03 180.373V191.271C266.463 191.271 267.462 191.08 268.027 190.696C268.613 190.293 268.905 189.011 268.905 186.852V184.157C268.905 182.603 268.623 181.584 268.058 181.1C267.513 180.615 266.504 180.373 265.03 180.373Z" fill="white"/>
<path d="M32.2881 231.987V271.191H40.0381V281H19.543V231.987H32.2881ZM65.165 231.987L72.4609 281H59.4131L58.7773 272.19H54.2061L53.4492 281H40.25L46.7285 231.987H65.165ZM58.4141 263.502C57.7682 257.952 57.1224 251.1 56.4766 242.946C55.1849 252.311 54.3776 259.163 54.0547 263.502H58.4141ZM74.6406 231.987H87.3555C91.3717 231.987 94.4092 232.3 96.4678 232.926C98.5465 233.551 100.222 234.823 101.493 236.74C102.765 238.637 103.4 241.705 103.4 245.943C103.4 248.809 102.946 250.807 102.038 251.938C101.15 253.068 99.3841 253.936 96.7402 254.541C99.6868 255.207 101.685 256.317 102.734 257.871C103.784 259.405 104.309 261.766 104.309 264.955V269.496C104.309 272.806 103.925 275.258 103.158 276.853C102.411 278.447 101.211 279.537 99.5557 280.122C97.9007 280.707 94.5101 281 89.3838 281H74.6406V231.987ZM87.3857 240.373V251.271C87.9307 251.251 88.3545 251.241 88.6572 251.241C89.9085 251.241 90.7057 250.938 91.0488 250.333C91.3919 249.707 91.5635 247.941 91.5635 245.035C91.5635 243.501 91.4222 242.432 91.1396 241.826C90.8571 241.201 90.4837 240.807 90.0195 240.646C89.5755 240.484 88.6976 240.393 87.3857 240.373ZM87.3857 258.9V272.614C89.182 272.554 90.3223 272.271 90.8066 271.767C91.3112 271.262 91.5635 270.021 91.5635 268.043V263.472C91.5635 261.373 91.3415 260.101 90.8975 259.657C90.4535 259.213 89.2829 258.961 87.3857 258.9Z" fill="white"/>
</g>
<rect x="5" y="5" width="290" height="290" stroke="white" stroke-width="10"/>
</g>
<defs>
<clipPath id="clip0_337_53">
<rect width="300" height="300" fill="white"/>
</clipPath>
<clipPath id="clip1_337_53">
<rect width="300" height="300" fill="white"/>
</clipPath>
</defs>
</svg>
